<?xml version="1.0" encoding="utf-8"?>
<!-- Generator: Adobe Illustrator 21.0.2, SVG Export Plug-In . SVG Version: 6.00 Build 0)  -->
<svg version="1.0" id="Capa_1" xmlns="http://www.w3.org/2000/svg" xmlns:xlink="http://www.w3.org/1999/xlink" x="0px" y="0px"
	 viewBox="0 0 150 54.6" style="enable-background:new 0 0 150 54.6;" xml:space="preserve">
<style type="text/css">
	.st0{fill:#FFFFFF;}
</style>
<g id="XMLID_2_">
	<g id="XMLID_113_">
		<path id="XMLID_125_" class="st0" d="M41.1,24.2c0-3.2-0.8-5.8-2.3-7.6c-1.6-1.9-3.8-2.8-6.7-2.8c-3.1,0-5.7,1.1-7.6,3.2
			c-2,2.1-2.9,4.8-2.9,7.9c0,3.6,0.9,6.4,2.8,8.4c1.9,2,4.3,3,7.3,3c3,0,5.8-0.9,8.4-2.6l-1-1.4c-2.1,1.5-4.4,2.3-7,2.3
			c-2.6,0-4.6-0.8-6.1-2.5c-1.5-1.7-2.2-3.9-2.2-6.9h17.4V24.2z M23.8,23.3c0.3-2.5,1.2-4.4,2.7-5.8c1.4-1.3,3.3-2,5.5-2
			c2.1,0,3.8,0.7,5,2c1.2,1.4,1.9,3.3,2,5.7H23.8z"/>
		<path id="XMLID_124_" class="st0" d="M59,30.2c0,1.5,0.3,2.5,0.8,3.2c0.5,0.7,1.4,1,2.6,1c0.9,0,1.8-0.3,2.8-0.8v1.8
			c-1.1,0.5-2.1,0.7-3.1,0.7c-3.5,0-5.2-1.9-5.2-5.7V7.5H59V30.2z"/>
		<path id="XMLID_123_" class="st0" d="M47.5,30.2c0,1.5,0.3,2.5,0.8,3.2c0.5,0.7,1.4,1,2.6,1c0.9,0,1.8-0.3,2.8-0.8v1.8
			c-1.1,0.5-2.1,0.7-3.1,0.7c-3.5,0-5.2-1.9-5.2-5.7V7.5h2.1V30.2z"/>
		<path id="XMLID_122_" class="st0" d="M71.1,30.8c0.6,0.5,1.2,0.9,1.7,1.2c0.5,0.3,1,0.5,1.3,0.6c0.4,0.1,0.7,0.2,1.1,0.3
			c0.4,0.1,0.7,0.1,0.9,0.1c2.2,0,3.3-0.8,3.3-2.3c0-0.5-0.3-0.9-0.8-1.3c-0.5-0.4-1.4-0.8-2.6-1.3c-1-0.4-1.9-0.8-2.6-1.2
			c-0.7-0.4-1.2-0.8-1.7-1.2c-0.4-0.5-0.8-1-1-1.6c-0.2-0.6-0.4-1.2-0.4-1.9c0-1.7,0.7-3.1,2.2-4.2c1.4-1,3.1-1.5,5.1-1.5
			c0.9,0,1.9,0.2,2.9,0.5c1,0.3,2.2,0.8,3.3,1.5l-1.6,3.3c-1-0.6-1.9-1-2.7-1.3c-0.8-0.3-1.5-0.4-2.1-0.4c-0.9,0-1.7,0.2-2.2,0.6
			c-0.2,0.2-0.4,0.4-0.6,0.7c-0.1,0.3-0.2,0.5-0.2,0.8c0,0.2,0,0.5,0.1,0.7c0.1,0.2,0.2,0.4,0.4,0.6c0.2,0.2,0.6,0.4,1.1,0.7
			c0.5,0.3,1,0.5,1.7,0.8c1,0.4,1.9,0.9,2.7,1.3c0.7,0.4,1.3,0.8,1.7,1.2c1,0.9,1.4,2,1.4,3.4c0,0.9-0.2,1.6-0.5,2.3
			c-0.4,0.7-0.9,1.3-1.5,1.9c-0.6,0.5-1.4,0.9-2.4,1.2c-0.9,0.3-1.9,0.4-3.1,0.4c-1.1,0-2.1-0.2-3.2-0.6c-1.1-0.4-2.3-1-3.5-1.8
			L71.1,30.8z"/>
		<path id="XMLID_121_" class="st0" d="M100.6,36.1V24.8c0-1.7-0.3-2.9-0.9-3.7c-0.6-0.8-1.6-1.2-2.9-1.2c-1.8,0-3.5,1.1-5,3.4v12.8
			h-4V8.7h4v9.4c0.7-0.6,1.6-1,2.4-1.2c0.9-0.3,1.9-0.4,3-0.4c2.4,0,4.2,0.7,5.5,2.1c1.3,1.4,1.9,3.3,1.9,5.9v11.7H100.6z"/>
		<path id="XMLID_118_" class="st0" d="M149.4,22.1c-0.4-1.2-1-2.1-1.7-3c-0.8-0.8-1.7-1.5-2.8-2c-1.1-0.5-2.3-0.7-3.7-0.7
			c-0.6,0-1.2,0.1-1.8,0.2c-0.6,0.1-1.1,0.2-1.6,0.3c-0.5,0.1-0.9,0.3-1.4,0.6c-0.4,0.2-0.8,0.5-1.2,0.8v-1.4h-4v27.5h4v-9.5
			c0.7,0.6,1.5,1,2.3,1.2c0.8,0.3,1.8,0.4,2.9,0.4c1.4,0,2.7-0.3,3.9-0.8c1.2-0.5,2.2-1.3,3.1-2.3c0.8-1,1.4-2.1,1.9-3.4
			c0.4-1.3,0.7-2.7,0.7-4.2C150,24.5,149.8,23.3,149.4,22.1z M145.5,28.9c-0.3,0.9-0.7,1.7-1.2,2.3l0,0c-0.5,0.5-1.1,1-1.7,1.3
			c-0.7,0.4-1.4,0.5-2.1,0.5c-1.1,0-2.1-0.3-2.9-0.8c-0.9-0.5-1.7-1.2-2.4-2.2V23c0.3-0.5,0.6-0.9,1.1-1.2c0.4-0.3,0.9-0.6,1.5-0.9
			c0.5-0.2,1.1-0.4,1.7-0.6c0.6-0.1,1.1-0.3,1.7-0.3c0.7,0,1.3,0.2,1.9,0.4c0.6,0.3,1.1,0.6,1.5,1.1h0c0.5,0.5,0.8,1.2,1.1,1.9
			c0.2,0.8,0.4,1.6,0.4,2.5C146,27,145.8,28,145.5,28.9z"/>
		<path id="XMLID_115_" class="st0" d="M127.1,22.4c-0.4-1.2-1.1-2.3-2-3.2c-1.8-1.8-4.2-2.8-7.2-2.8c-1.5,0-2.9,0.2-4.1,0.7
			c-1.3,0.5-2.4,1.2-3.3,2c-0.9,0.9-1.6,2-2.1,3.2c-0.5,1.2-0.7,2.6-0.7,4.2c0,1.5,0.2,2.8,0.7,4c0.5,1.2,1.1,2.2,2,3.1
			c0.9,0.9,2,1.6,3.2,2.1c1.2,0.5,2.6,0.7,4.2,0.7c1.5,0,2.9-0.2,4.2-0.7c1.3-0.5,2.3-1.2,3.2-2.1c0.9-0.9,1.5-2,2-3.2
			c0.5-1.2,0.7-2.5,0.7-4C127.7,25,127.5,23.6,127.1,22.4z M123.3,29.3c-0.3,0.8-0.7,1.5-1.2,2.1c-0.5,0.5-1.1,0.9-1.9,1.2
			c-0.7,0.3-1.6,0.4-2.5,0.4c-1.9,0-3.3-0.6-4.4-1.7c-1.1-1.2-1.7-2.7-1.7-4.7c0-2.2,0.6-3.8,1.7-5c1.1-1.1,2.6-1.7,4.5-1.7
			c1.9,0,3.3,0.6,4.3,1.7c1,1.1,1.5,2.7,1.5,4.9C123.7,27.5,123.5,28.5,123.3,29.3z"/>
		<path id="XMLID_114_" class="st0" d="M18,34.2c-2.5,1.3-4.9,2-7.4,2c-3.2,0-5.8-1-7.7-3c-2-2-2.9-4.6-2.9-7.8
			c0-3.4,1.1-6.2,3.3-8.3c2.2-2.2,5-3.2,8.5-3.2c2.3,0,4.5,0.6,6.4,1.7L17,17c-1.7-0.9-3.5-1.4-5.5-1.4c-2.8,0-5,0.9-6.7,2.7
			c-1.7,1.8-2.6,4.1-2.6,7c0,2.8,0.8,5,2.4,6.7c1.6,1.7,3.6,2.5,6.2,2.5c2.4,0,4.4-0.6,6.1-1.7L18,34.2z"/>
	</g>
	<g id="XMLID_7_">
		<path id="XMLID_111_" class="st0" d="M26.3,41v5.9h-1V41H26.3z"/>
		<path id="XMLID_109_" class="st0" d="M33.3,46.9h-1v-4.2l-1.8,3h-0.1l-1.8-3v4.2h-1V41h1l1.8,3l1.8-3h1V46.9z"/>
		<path id="XMLID_106_" class="st0" d="M38.8,43c0,1.1-0.8,1.9-2,1.9h-1.2v2h-1V41h2.2C37.9,41,38.8,41.9,38.8,43z M37.8,43
			c0-0.6-0.4-1-1-1h-1.2V44h1.2C37.4,44,37.8,43.6,37.8,43z"/>
		<path id="XMLID_103_" class="st0" d="M39.4,44c0-1.7,1.4-3.1,3.1-3.1c1.7,0,3.1,1.4,3.1,3.1c0,1.7-1.4,3.1-3.1,3.1
			C40.8,47.1,39.4,45.7,39.4,44z M44.6,44c0-1.2-0.9-2.1-2.1-2.1c-1.2,0-2.1,0.9-2.1,2.1c0,1.2,0.9,2.1,2.1,2.1
			C43.7,46.1,44.6,45.2,44.6,44z"/>
		<path id="XMLID_100_" class="st0" d="M48.7,44.8h-1.2v2.2h-1V41H49c1.1,0,1.9,0.8,1.9,1.9c0,0.8-0.5,1.4-1.2,1.7l1.3,2.3H50
			L48.7,44.8z M47.6,43.9H49c0.5,0,0.9-0.4,0.9-1c0-0.6-0.4-1-0.9-1h-1.4V43.9z"/>
		<path id="XMLID_98_" class="st0" d="M55.6,42H54v5h-1v-5h-1.7V41h4.3V42z"/>
		<path id="XMLID_95_" class="st0" d="M59.5,45.8H57l-0.4,1.2h-1.1l2.1-5.9h1.2l2.1,5.9h-1L59.5,45.8z M59.2,44.8l-0.9-2.7l-0.9,2.7
			H59.2z"/>
		<path id="XMLID_92_" class="st0" d="M66.9,44c0,1.6-1.2,3-2.8,3h-2.3V41h2.3C65.7,41,66.9,42.3,66.9,44z M66,44c0-1.2-0.8-2-1.9-2
			h-1.4V46h1.4C65.2,46,66,45.2,66,44z"/>
		<path id="XMLID_89_" class="st0" d="M67.6,44c0-1.7,1.4-3.1,3.1-3.1c1.7,0,3.1,1.4,3.1,3.1c0,1.7-1.4,3.1-3.1,3.1
			C69,47.1,67.6,45.7,67.6,44z M72.8,44c0-1.2-0.9-2.1-2.1-2.1c-1.2,0-2.1,0.9-2.1,2.1c0,1.2,0.9,2.1,2.1,2.1
			C71.9,46.1,72.8,45.2,72.8,44z"/>
		<path id="XMLID_87_" class="st0" d="M74.3,45.6l0.8-0.5c0.2,0.6,0.7,1,1.5,1c0.8,0,1.1-0.3,1.1-0.8c0-0.5-0.5-0.7-1.3-1
			c-0.9-0.3-1.8-0.6-1.8-1.7c0-1.1,0.9-1.7,1.9-1.7c1,0,1.7,0.5,2.1,1.3l-0.8,0.5c-0.2-0.5-0.6-0.8-1.2-0.8c-0.6,0-0.9,0.3-0.9,0.7
			c0,0.5,0.3,0.7,1.2,0.9c1,0.3,2,0.6,2,1.8c0,1.1-0.9,1.7-2.1,1.7C75.4,47.1,74.6,46.5,74.3,45.6z"/>
		<path id="XMLID_84_" class="st0" d="M86.1,43c0,1.1-0.8,1.9-2,1.9h-1.2v2h-1V41h2.2C85.2,41,86.1,41.9,86.1,43z M85.1,43
			c0-0.6-0.4-1-1-1h-1.2V44h1.2C84.7,44,85.1,43.6,85.1,43z"/>
		<path id="XMLID_81_" class="st0" d="M89.9,45.8h-2.5L87,46.9h-1.1l2.1-5.9h1.2l2.1,5.9h-1L89.9,45.8z M89.6,44.8l-0.9-2.7
			l-0.9,2.7H89.6z"/>
		<path id="XMLID_78_" class="st0" d="M94.3,44.8h-1.2v2.2h-1V41h2.4c1.1,0,1.9,0.8,1.9,1.9c0,0.8-0.5,1.4-1.2,1.7l1.3,2.3h-1.1
			L94.3,44.8z M93.1,43.9h1.4c0.5,0,0.9-0.4,0.9-1c0-0.6-0.4-1-0.9-1h-1.4V43.9z"/>
		<path id="XMLID_17_" class="st0" d="M100.9,45.8h-2.5L98,46.9h-1.1l2.1-5.9h1.2l2.1,5.9h-1L100.9,45.8z M100.6,44.8l-0.9-2.7
			l-0.9,2.7H100.6z"/>
		<path id="XMLID_15_" class="st0" d="M108.7,44.3c0,1.6-1.2,2.8-2.9,2.8c-1.8,0-3.2-1.4-3.2-3.1s1.3-3.1,3.1-3.1
			c1.1,0,2.1,0.6,2.6,1.4l-0.8,0.5c-0.3-0.5-1-0.9-1.7-0.9c-1.3,0-2.1,0.9-2.1,2.1c0,1.2,0.9,2.1,2.2,2.1c1.1,0,1.7-0.6,1.9-1.4h-2
			v-0.9h3V44.3z"/>
		<path id="XMLID_13_" class="st0" d="M109.6,45v-4h1v3.9c0,0.7,0.4,1.2,1.3,1.2c0.9,0,1.3-0.5,1.3-1.2V41h1v4
			c0,1.3-0.9,2.1-2.2,2.1C110.6,47.1,109.6,46.3,109.6,45z"/>
		<path id="XMLID_10_" class="st0" d="M118.6,45.8h-2.5l-0.4,1.2h-1.1l2.1-5.9h1.2l2.1,5.9h-1L118.6,45.8z M118.3,44.8l-0.9-2.7
			l-0.9,2.7H118.3z"/>
		<path id="XMLID_8_" class="st0" d="M122.6,44.6v2.4h-1v-2.4l-2.1-3.6h1.1l1.4,2.6l1.4-2.6h1.1L122.6,44.6z"/>
	</g>
</g>
</svg>
